# xmcd
#
# Track frame offsets: 
#        183
#        20818
#        30520
#        41745
#        55563
#        68360
#        80823
#        95145
#        104580
#        120490
#        131708
#        143760
#        157043
#        169760
#        181890
#        193850
#        206708
#        217910
#        233438
#        243590
#        257588
#        274710
#        295570
#        305440
#
# Disc length: 4290 seconds
#
# Revision: 4
# Processed by: cddbd v1.5.2PL0 Copyright (c) Steve Scherf et al.
# Submitted via: ExactAudioCopyFreeDBPlugin 1.0
#
DISCID=5710c018
DTITLE=Various Artist - Deep Soul Queens
DYEAR=1991
DGENRE=Soul
TTITLE0=Doris Duke - He's Gone
TTITLE1=Doris Duke - I Can't Do Without You
TTITLE2=Doris Duke - Feet Start Walking
TTITLE3=Doris Duke - Ghost of Myself
TTITLE4=Doris Duke - Your Best Friend
TTITLE5=Doris Duke - Feeling is Right
TTITLE6=Doris Duke - I Don't Care Anymore
TTITLE7=Doris Duke - Congratulations Baby
TTITLE8=Doris Duke - We're More Than Strangers
TTITLE9=Doris Duke - Divorce Decree
TTITLE10=Doris Duke - How Was I to Know You Cared
TTITLE11=Doris Duke - To the Other Woman (I'm the Other Woman)
TTITLE12=Sandra Phillips - Rescue Song
TTITLE13=Sandra Phillips - I've Been Down So LOng
TTITLE14=Sandra Phillips - My Man and Me
TTITLE15=Sandra Phillips - To the Other Woman (I'm the Other Woman)
TTITLE16=Sandra Phillips - Now That I'm Gone (When Are You Leaving)
TTITLE17=Sandra Phillips - Someday We'll Be Together
TTITLE18=Sandra Phillips - After All I Am Your Woman
TTITLE19=Sandra Phillips - Ghost of Myself
TTITLE20=Sandra Phillips - If You Get Him (He Was Never Mine)
TTITLE21=Sandra Phillips - She Didn't Know (She Kept on Talking)
TTITLE22=Sandra Phillips - Please Don't Send Him Back to Me
TTITLE23=Sandra Phillips - Some Mother's Son
EXTD=trks 1-12 doris duke 13-24 sandra phillips
EXTT0=
EXTT1=
EXTT2=
EXTT3=
EXTT4=
EXTT5=
EXTT6=
EXTT7=
EXTT8=
EXTT9=
EXTT10=
EXTT11=
EXTT12=
EXTT13=
EXTT14=
EXTT15=
EXTT16=
EXTT17=
EXTT18=
EXTT19=
EXTT20=
EXTT21=
EXTT22=
EXTT23=
PLAYORDER=
